<?xml version="1.0" encoding="utf-8"?>
<!-- Generator: Adobe Illustrator 27.3.1, SVG Export Plug-In . SVG Version: 6.00 Build 0)  -->
<svg version="1.1" id="Layer_1" xmlns="http://www.w3.org/2000/svg" xmlns:xlink="http://www.w3.org/1999/xlink" x="0px" y="0px"
	 viewBox="0 0 1366 768" style="enable-background:new 0 0 1366 768;" xml:space="preserve">
<style type="text/css">
	.st0{fill:none;stroke:#000000;stroke-width:2;stroke-miterlimit:10;}
</style>
<g>
	<path class="st0" d="M97.01,426V320.97h37.21c18.65,0,32.64,4.26,41.97,12.78c9.33,8.52,13.99,21.33,13.99,38.42
		c0,16.36-5.09,29.42-15.27,39.18c-10.18,9.77-23.74,14.65-40.69,14.65H97.01z M120.67,340.23v66.58h11.72
		c10.25,0,18.3-3.08,24.13-9.23c5.83-6.15,8.75-14.53,8.75-25.12c0-10.01-2.89-17.88-8.68-23.62c-5.79-5.74-13.9-8.61-24.35-8.61
		H120.67z"/>
	<path class="st0" d="M270.6,426h-62.99V320.97h60.57v19.26h-36.91v23.36h34.35v19.19h-34.35v24.02h39.33V426z"/>
	<path class="st0" d="M381.92,426h-23.88l-43.29-65.99c-1.27-1.95-2.34-3.65-3.22-5.09c-0.88-1.44-1.56-2.65-2.05-3.63h-0.29
		c0.19,1.86,0.34,4.2,0.44,7.03c0.1,2.83,0.15,6.15,0.15,9.96V426h-22.34V320.97h25.49l41.67,63.94c0.93,1.42,1.84,2.84,2.75,4.28
		c0.9,1.44,1.75,2.87,2.53,4.29h0.29c-0.2-1.22-0.34-3.04-0.44-5.46c-0.1-2.42-0.15-5.41-0.15-8.97v-58.08h22.34V426z"/>
	<path class="st0" d="M429.6,426h-23.66V320.97h23.66V426z"/>
	<path class="st0" d="M528.77,426h-82.84v-13.62l52.08-72.14h-48.19v-19.26h78.81v13.26l-50.9,72.58h51.05V426z"/>
</g>
</svg>
