<?xml version="1.0" encoding="utf-8"?>
<!-- Generator: Adobe Illustrator 27.3.1, SVG Export Plug-In . SVG Version: 6.00 Build 0)  -->
<svg version="1.1" id="Layer_1" xmlns="http://www.w3.org/2000/svg" xmlns:xlink="http://www.w3.org/1999/xlink" x="0px" y="0px"
	 viewBox="0 0 1366 768" style="enable-background:new 0 0 1366 768;" xml:space="preserve">
<style type="text/css">
	.st0{fill:none;stroke:#000000;stroke-width:2;stroke-miterlimit:10;}
</style>
<g id="firstname">
	<path class="st0" d="M97.01,426V320.97h37.21c18.65,0,32.64,4.26,41.97,12.78c9.33,8.52,13.99,21.33,13.99,38.42
		c0,16.36-5.09,29.42-15.27,39.18c-10.18,9.77-23.74,14.65-40.69,14.65H97.01z M120.67,340.23v66.58h11.72
		c10.25,0,18.3-3.08,24.13-9.23c5.83-6.15,8.75-14.53,8.75-25.12c0-10.01-2.89-17.88-8.68-23.62c-5.79-5.74-13.9-8.61-24.35-8.61
		H120.67z"/>
	<path class="st0" d="M270.6,426h-62.99V320.97h60.57v19.26h-36.91v23.36h34.35v19.19h-34.35v24.02h39.33V426z"/>
	<path class="st0" d="M381.92,426h-23.88l-43.29-65.99c-1.27-1.95-2.34-3.65-3.22-5.09c-0.88-1.44-1.56-2.65-2.05-3.63h-0.29
		c0.19,1.86,0.34,4.2,0.44,7.03c0.1,2.83,0.15,6.15,0.15,9.96V426h-22.34V320.97h25.49l41.67,63.94c0.93,1.42,1.84,2.84,2.75,4.28
		c0.9,1.44,1.75,2.87,2.53,4.29h0.29c-0.2-1.22-0.34-3.04-0.44-5.46c-0.1-2.42-0.15-5.41-0.15-8.97v-58.08h22.34V426z"/>
	<path class="st0" d="M429.6,426h-23.66V320.97h23.66V426z"/>
	<path class="st0" d="M528.77,426h-82.84v-13.62l52.08-72.14h-48.19v-19.26h78.81v13.26l-50.9,72.58h51.05V426z"/>
</g>
<g id="lastname">
	<path class="st0" d="M695.84,426l38.23-105.03h28.05L799.48,426H773.7l-7.1-21.9h-38.09l-7.03,21.9H695.84z M733.63,385.64h27.47
		l-11.57-36.47c-0.44-1.46-0.79-2.71-1.06-3.74c-0.27-1.03-0.5-2.34-0.7-3.96h-0.59c-0.25,1.46-0.5,2.74-0.77,3.81
		c-0.27,1.07-0.62,2.27-1.06,3.59L733.63,385.64z"/>
	<path class="st0" d="M897.92,426h-26.73l-13.99-25.85c-2.25-4.2-4.5-7.37-6.77-9.52c-2.27-2.15-4.87-3.37-7.8-3.66h-6.37V426
		h-23.66V320.97h37.5c12.74,0,22.3,2.48,28.67,7.43c6.37,4.96,9.56,12.39,9.56,22.3c0,6.98-2.05,13-6.15,18.05
		s-9.72,8.78-16.85,11.17v0.29c3.12,0.98,6.04,3.03,8.75,6.15c2.71,3.13,5.02,6.37,6.92,9.74L897.92,426z M836.25,338.7v30.4h10.25
		c5.13,0,9.23-1.54,12.3-4.61s4.61-6.88,4.61-11.43c0-4.78-1.37-8.37-4.1-10.77c-2.74-2.39-6.86-3.59-12.38-3.59H836.25z"/>
	<path class="st0" d="M901.94,419.04l9.81-18.38c5.27,3.12,9.85,5.24,13.73,6.34c3.88,1.1,7.97,1.65,12.27,1.65
		c5.66,0,9.84-1.09,12.52-3.26c2.68-2.17,4.03-5.14,4.03-8.9c0-3.61-1.07-6.38-3.22-8.31c-2.15-1.93-6.1-3.55-11.87-4.87
		c-11.72-2.68-20.24-6.49-25.56-11.43c-5.32-4.93-7.98-11.82-7.98-20.65c0-8.89,3.44-16.44,10.33-22.67s16.53-9.34,28.93-9.34
		c5.17,0,10.25,0.59,15.23,1.76s9.72,2.88,14.21,5.13l-8.86,18.68c-4.05-2.29-7.86-3.93-11.43-4.91c-3.56-0.98-6.88-1.46-9.96-1.46
		c-4.74,0-8.42,0.93-11.06,2.78c-2.64,1.86-3.96,4.52-3.96,7.98c0,3.17,1.21,5.62,3.62,7.32c2.42,1.71,6.75,3.27,13,4.69
		c11.38,2.59,19.6,6.45,24.68,11.57c5.08,5.13,7.62,12.35,7.62,21.68c0,9.96-3.5,18.02-10.51,24.17
		c-7.01,6.15-17.18,9.23-30.51,9.23c-5.81,0-11.89-0.77-18.24-2.31C912.44,423.99,906.83,421.83,901.94,419.04z"/>
	<path class="st0" d="M1057.14,426h-62.55V320.97h23.66v85.84h38.89V426z"/>
	<path class="st0" d="M1064.39,426l38.23-105.03h28.05L1168.03,426h-25.78l-7.1-21.9h-38.09l-7.03,21.9H1064.39z M1102.19,385.64
		h27.47l-11.57-36.47c-0.44-1.46-0.79-2.71-1.06-3.74c-0.27-1.03-0.5-2.34-0.7-3.96h-0.59c-0.25,1.46-0.5,2.74-0.77,3.81
		c-0.27,1.07-0.62,2.27-1.06,3.59L1102.19,385.64z"/>
	<path class="st0" d="M1275.62,426h-23.88l-43.29-65.99c-1.27-1.95-2.34-3.65-3.22-5.09c-0.88-1.44-1.56-2.65-2.05-3.63h-0.29
		c0.19,1.86,0.34,4.2,0.44,7.03c0.1,2.83,0.15,6.15,0.15,9.96V426h-22.34V320.97h25.49l41.67,63.94c0.93,1.42,1.84,2.84,2.75,4.28
		c0.9,1.44,1.75,2.87,2.53,4.29h0.29c-0.2-1.22-0.34-3.04-0.44-5.46c-0.1-2.42-0.15-5.41-0.15-8.97v-58.08h22.34V426z"/>
</g>

</svg>
