<?xml version="1.0" standalone="no"?>
<!DOCTYPE svg PUBLIC "-//W3C//DTD SVG 20010904//EN"
 "http://www.w3.org/TR/2001/REC-SVG-20010904/DTD/svg10.dtd">
<svg version="1.0" xmlns="http://www.w3.org/2000/svg"
 width="300.000000pt" height="42.000000pt" viewBox="0 0 300.000000 42.000000"
 preserveAspectRatio="xMidYMid meet">
<metadata>
Created by potrace 1.10, written by Peter Selinger 2001-2011
</metadata>
<g transform="translate(0.000000,42.000000) scale(0.100000,-0.100000)"
fill="#000000" stroke="none">
<path d="M2043 303 c-27 -5 -63 -48 -63 -75 0 -29 44 -66 94 -79 71 -18 89
-60 31 -75 -28 -7 -75 18 -75 39 0 9 -10 12 -30 9 -35 -5 -35 -4 -15 -42 20
-39 43 -50 105 -50 64 0 100 30 100 83 0 42 -23 64 -85 83 -62 18 -79 32 -64
50 17 21 67 17 81 -6 8 -12 24 -20 40 -20 32 0 33 1 13 40 -10 20 -27 32 -53
39 -38 11 -41 11 -79 4z"/>
<path d="M90 165 l0 -135 65 0 c87 0 132 19 150 64 19 44 19 97 1 140 -22 53
-49 66 -138 66 l-78 0 0 -135z m157 69 c19 -26 17 -119 -3 -138 -9 -9 -32 -16
-55 -16 l-39 0 0 91 0 92 42 -6 c23 -3 48 -14 55 -23z"/>
<path d="M365 165 l0 -135 103 0 102 0 0 25 c0 24 -2 25 -75 25 l-75 0 0 35 0
35 70 0 c69 0 70 1 70 26 0 25 -1 26 -70 22 l-70 -3 0 34 0 33 75 -4 c72 -3
75 -3 75 19 0 22 -3 23 -102 23 l-103 0 0 -135z"/>
<path d="M620 165 l0 -135 25 0 c25 0 25 1 25 91 l0 92 54 -89 c45 -76 57 -89
82 -92 l29 -3 0 136 0 135 -29 0 -28 0 4 -90 c2 -49 3 -90 2 -90 -1 0 -26 40
-55 90 -47 79 -57 90 -81 90 l-28 0 0 -135z m49 86 c8 -14 7 -22 -4 -31 -13
-11 -15 -8 -15 19 0 36 5 39 19 12z m127 -178 c-11 -11 -19 6 -11 24 8 17 8
17 12 0 3 -10 2 -21 -1 -24z"/>
<path d="M890 165 l0 -135 30 0 30 0 0 135 0 135 -30 0 -30 0 0 -135z"/>
<path d="M990 278 c0 -22 3 -23 66 -20 l66 4 -76 -93 c-46 -56 -76 -102 -76
-116 0 -23 2 -23 114 -23 l114 0 0 26 0 25 -79 -3 c-44 -2 -79 -2 -79 0 0 1
34 42 75 91 41 49 75 99 75 110 0 20 -5 21 -100 21 -97 0 -100 -1 -100 -22z
m160 -18 c0 -5 -2 -10 -4 -10 -3 0 -8 5 -11 10 -3 6 -1 10 4 10 6 0 11 -4 11
-10z"/>
<path d="M1482 212 c-18 -48 -42 -108 -53 -135 l-19 -47 31 0 c24 0 32 6 40
29 9 27 15 30 65 33 54 3 55 2 66 -29 10 -27 18 -33 40 -33 15 0 28 3 28 6 0
4 -23 64 -52 135 -51 126 -53 129 -83 129 -29 0 -32 -4 -63 -88z m78 48 c0 -5
-2 -10 -4 -10 -3 0 -8 5 -11 10 -3 6 -1 10 4 10 6 0 11 -4 11 -10z m14 -97 c7
-21 4 -23 -29 -23 -25 0 -35 4 -31 13 2 6 10 30 17 51 l13 39 12 -29 c6 -16
15 -39 18 -51z m46 -44 c0 -6 -4 -7 -10 -4 -5 3 -10 11 -10 16 0 6 5 7 10 4 6
-3 10 -11 10 -16z"/>
<path d="M1710 165 l0 -135 30 0 30 0 0 61 c0 52 2 60 16 55 9 -3 20 -6 25 -6
5 0 25 -25 45 -55 33 -49 41 -55 71 -55 l33 0 -36 55 c-20 30 -41 55 -45 55
-20 0 -7 18 16 24 42 11 51 86 13 119 -16 13 -39 17 -109 17 l-89 0 0 -135z
m154 82 c10 -7 17 -22 14 -33 -2 -15 -13 -20 -56 -22 l-52 -3 0 35 c0 35 1 36
38 36 21 0 46 -6 56 -13z"/>
<path d="M2240 165 l0 -135 95 0 c95 0 95 0 95 25 0 24 -2 25 -67 25 l-68 0 3
110 3 110 -30 0 -31 0 0 -135z"/>
<path d="M2540 278 c-5 -13 -29 -74 -54 -136 l-44 -112 29 0 c24 0 32 6 40 30
11 29 13 30 69 30 57 0 59 -1 65 -30 6 -26 11 -30 39 -30 l33 0 -55 135 c-52
129 -56 135 -84 135 -20 0 -31 -7 -38 -22z m50 -16 c0 -5 -7 -9 -15 -9 -8 0
-12 4 -9 9 3 4 9 8 15 8 5 0 9 -4 9 -8z m14 -99 c7 -21 4 -23 -27 -23 l-35 0
16 51 17 51 11 -28 c6 -16 15 -39 18 -51z m46 -44 c0 -6 -4 -7 -10 -4 -5 3
-10 11 -10 16 0 6 5 7 10 4 6 -3 10 -11 10 -16z"/>
<path d="M2745 165 l0 -135 29 0 28 0 -4 90 c-2 50 -3 90 -3 90 1 0 26 -40 56
-90 47 -79 57 -90 81 -90 l28 0 0 135 0 135 -25 0 c-25 0 -25 -1 -25 -91 l0
-92 -54 89 c-45 76 -57 89 -82 92 l-29 3 0 -136z m65 65 c0 -18 -29 -4 -33 17
-4 23 -3 23 14 7 11 -9 19 -20 19 -24z m116 -158 c-4 -3 -11 -1 -18 6 -8 8 -8
15 3 28 13 16 14 16 17 -5 2 -13 1 -25 -2 -29z"/>
</g>
</svg>
